<?xml version="1.0" standalone="no"?>
<!DOCTYPE svg PUBLIC "-//W3C//DTD SVG 20010904//EN"
 "http://www.w3.org/TR/2001/REC-SVG-20010904/DTD/svg10.dtd">
<svg version="1.0" xmlns="http://www.w3.org/2000/svg"
 width="290.000000pt" height="80.000000pt" viewBox="0 0 290.000000 80.000000"
 preserveAspectRatio="xMidYMid meet">

<g transform="translate(0.000000,80.000000) scale(0.100000,-0.100000)"
fill="#000000" stroke="none">
<path d="M349 761 c-275 -88 -355 -436 -148 -643 67 -67 143 -100 240 -106
257 -15 451 198 409 447 l-12 71 29 37 c47 61 47 59 -12 104 l-55 42 -21 -27
-20 -26 -53 40 c-102 77 -236 100 -357 61z m196 -6 c89 -15 215 -99 188 -126
-9 -9 -23 -2 -54 24 -88 76 -233 94 -344 43 -262 -120 -265 -476 -5 -604 47
-23 68 -27 140 -27 72 0 93 4 140 27 130 64 192 164 194 317 1 96 20 123 32
46 31 -208 -114 -398 -328 -430 -54 -8 -146 9 -202 37 -60 31 -135 107 -170
173 -29 56 -31 67 -31 160 0 93 2 104 31 160 38 72 116 148 180 176 50 21 136
38 169 33 11 -1 38 -6 60 -9z m-85 -91 c0 -58 24 -56 28 3 l3 40 46 -8 c44 -9
133 -53 133 -66 0 -4 -12 -19 -27 -35 -36 -37 -21 -49 17 -13 19 18 34 25 40
19 6 -6 -17 -43 -62 -101 l-70 -92 -61 46 -60 46 -38 -44 c-21 -24 -38 -49
-36 -55 2 -13 204 -184 217 -184 4 0 35 36 69 80 53 68 67 80 92 80 24 0 29
-4 29 -24 0 -33 -25 -102 -51 -137 l-21 -30 -27 25 c-40 39 -61 32 -23 -7 l32
-33 -22 -22 c-26 -24 -97 -57 -145 -67 -31 -6 -32 -6 -35 36 -4 61 -28 64 -28
4 l0 -47 -37 7 c-55 10 -128 43 -152 69 l-21 22 25 24 c23 21 34 50 19 50 -3
0 -17 -14 -31 -30 -13 -17 -29 -27 -35 -24 -17 11 -68 128 -68 157 0 25 3 27
44 27 25 0 48 5 51 10 4 6 -14 10 -46 10 l-52 0 6 45 c6 42 36 113 60 143 8
10 17 6 43 -19 44 -43 57 -29 15 15 l-33 34 34 25 c54 40 90 54 171 66 4 1 7
-20 7 -45z m320 -239 c0 -16 -6 -25 -15 -25 -18 0 -18 5 -5 31 14 26 20 24 20
-6z"/>
<path d="M1030 578 c-27 -43 -60 -151 -60 -194 0 -23 6 -37 19 -44 31 -16 41
-12 52 20 10 26 16 30 49 30 32 0 39 -4 42 -22 4 -31 52 -38 67 -9 19 34 -36
189 -81 231 -33 30 -65 26 -88 -12z m73 -150 c-6 -11 -43 -10 -43 1 0 5 5 22
11 38 l11 28 12 -30 c7 -16 11 -33 9 -37z"/>
<path d="M2613 603 c-30 -6 -41 -42 -18 -59 14 -11 16 -22 10 -76 -4 -35 -11
-68 -16 -74 -4 -5 -6 -20 -2 -32 6 -23 47 -36 99 -30 23 2 30 8 32 31 3 22 -1
27 -17 27 -19 0 -21 6 -21 75 0 68 2 75 20 75 15 0 20 7 20 25 0 14 -6 27 -12
29 -26 8 -74 12 -95 9z"/>
<path d="M1316 586 c-85 -32 -112 -92 -74 -165 33 -64 68 -86 133 -86 43 0 59
5 79 24 14 14 26 30 26 37 0 18 -100 58 -113 45 -9 -9 -8 -17 1 -31 17 -28 -6
-27 -42 1 -59 46 -11 113 78 107 46 -3 50 -1 57 24 4 18 3 31 -5 38 -22 18
-99 21 -140 6z"/>
<path d="M1553 589 c-40 -12 -48 -37 -39 -130 7 -82 22 -118 51 -125 39 -10
168 13 182 32 15 21 15 25 5 42 -7 9 -20 10 -65 1 -56 -12 -87 -8 -87 10 0 5
17 13 38 18 30 7 37 13 37 33 0 23 -3 25 -43 22 -40 -2 -43 -1 -40 20 3 21 8
23 68 23 54 1 65 4 68 18 7 34 -17 47 -82 46 -33 0 -76 -5 -93 -10z"/>
<path d="M1800 581 c-15 -28 -32 -161 -24 -194 6 -28 46 -53 65 -41 5 3 9 41
9 86 0 97 10 95 60 -14 37 -80 44 -88 79 -88 22 0 23 3 18 43 -5 35 2 125 15
189 2 8 -10 14 -29 16 -29 3 -33 0 -44 -37 -12 -41 -12 -41 -27 -18 -49 73
-100 98 -122 58z"/>
<path d="M2059 573 c-17 -44 -24 -219 -10 -228 7 -4 46 -8 86 -8 85 -2 116 14
149 74 25 46 16 81 -32 130 -38 38 -92 59 -150 59 -26 0 -34 -5 -43 -27z m131
-78 c54 -28 33 -75 -32 -75 -37 0 -38 1 -38 38 0 57 16 65 70 37z"/>
<path d="M2363 586 c-24 -11 -33 -23 -38 -49 -10 -52 11 -167 34 -190 18 -18
26 -19 100 -9 88 11 114 24 109 56 -3 23 -10 23 -91 11 -37 -6 -51 -5 -58 6
-6 11 0 17 29 25 30 9 38 16 40 39 4 27 3 27 -42 21 -42 -7 -46 -5 -46 13 0
25 34 35 96 28 l45 -5 -3 32 -3 31 -70 2 c-43 2 -82 -3 -102 -11z"/>
<path d="M983 243 c-20 -8 -15 -41 7 -48 27 -9 25 -33 -2 -38 l-23 -4 23 -2
c33 -2 40 28 12 49 -24 18 -19 46 7 36 8 -3 11 -1 8 4 -7 11 -13 11 -32 3z"/>
<path d="M1047 243 c-4 -3 -7 -26 -7 -50 0 -42 1 -43 33 -42 30 2 30 2 5 6
-34 5 -38 33 -5 34 l22 0 -22 9 c-13 5 -23 14 -23 20 0 6 10 15 23 20 21 8 21
9 1 9 -11 1 -24 -2 -27 -6z"/>
<path d="M1179 210 c-3 -37 -8 -45 -24 -45 -16 0 -21 9 -26 40 l-7 40 2 -45
c1 -41 3 -45 28 -48 22 -3 29 2 33 21 4 14 5 38 3 53 -3 23 -5 20 -9 -16z"/>
<path d="M1223 243 c-21 -8 -15 -31 13 -49 26 -18 23 -28 -11 -37 -12 -3 -8
-5 10 -4 40 3 46 32 10 49 -27 12 -29 34 -2 32 9 -1 14 2 11 7 -6 10 -12 10
-31 2z"/>
<path d="M1438 239 c-12 -6 -18 -22 -18 -44 0 -29 4 -36 25 -41 15 -4 32 -1
40 6 22 18 19 67 -4 80 -23 12 -22 12 -43 -1z m42 -13 c6 -8 10 -25 8 -38 -2
-17 -10 -23 -28 -23 -18 0 -26 6 -28 23 -3 22 13 52 28 52 4 0 13 -7 20 -14z"/>
<path d="M1531 198 c1 -29 4 -43 6 -30 2 12 7 22 10 22 2 0 14 -10 24 -22 l20
-23 -11 24 c-8 16 -9 26 -2 33 11 11 5 38 -8 38 -5 0 -6 -9 -3 -20 4 -14 0
-20 -12 -20 -13 0 -16 6 -13 25 3 14 1 25 -3 25 -5 0 -8 -24 -8 -52z"/>
<path d="M1697 244 c-4 -4 -6 -28 -6 -53 1 -25 4 -36 6 -23 5 27 29 29 38 2 3
-11 11 -20 17 -20 7 0 7 4 -1 14 -6 7 -8 27 -5 45 4 19 2 31 -4 31 -6 0 -17 2
-24 5 -8 3 -17 2 -21 -1z m43 -30 c0 -8 -9 -14 -20 -14 -19 0 -27 19 -14 33
10 9 34 -4 34 -19z"/>
<path d="M1828 239 c-12 -6 -18 -22 -18 -44 0 -29 4 -36 25 -41 15 -4 32 -1
40 6 22 18 19 67 -4 80 -23 12 -22 12 -43 -1z m42 -13 c6 -8 10 -25 8 -38 -2
-17 -10 -23 -28 -23 -18 0 -26 6 -28 23 -3 22 13 52 28 52 4 0 13 -7 20 -14z"/>
<path d="M1923 243 c-21 -8 -15 -31 13 -49 26 -18 23 -28 -11 -37 -12 -3 -8
-5 10 -4 40 3 46 32 10 49 -27 12 -29 34 -2 32 9 -1 14 2 11 7 -6 10 -12 10
-31 2z"/>
<path d="M2028 244 c-5 -4 -7 -28 -7 -53 l2 -46 6 40 7 40 14 -37 c8 -21 17
-38 20 -38 3 0 12 17 20 38 l14 37 7 -40 6 -40 2 47 c1 58 -13 70 -29 23 -6
-19 -15 -35 -18 -35 -4 0 -14 16 -22 36 -8 20 -18 33 -22 28z"/>
<path d="M2231 198 c1 -29 4 -43 6 -30 5 28 19 28 33 1 7 -11 14 -18 17 -15 3
3 0 12 -7 21 -10 12 -10 18 0 30 13 15 6 35 -13 35 -8 0 -7 -3 2 -9 16 -11 6
-31 -16 -31 -11 0 -14 7 -11 25 3 14 1 25 -3 25 -5 0 -8 -24 -8 -52z"/>
<path d="M2328 239 c-12 -6 -18 -22 -18 -43 0 -34 14 -47 48 -45 10 1 6 4 -8
8 -16 4 -26 15 -28 29 -4 28 16 55 35 48 8 -3 11 -1 8 4 -8 12 -15 12 -37 -1z"/>
<path d="M2480 200 c0 -46 2 -50 23 -50 31 0 47 18 47 52 0 21 -6 31 -26 38
-41 16 -44 13 -44 -40z m44 27 c25 -18 18 -61 -11 -65 -21 -3 -23 1 -23 37 0
44 6 49 34 28z"/>
<path d="M2586 234 c-20 -19 -21 -58 -2 -74 43 -35 99 28 61 70 -22 24 -38 25
-59 4z m58 -20 c7 -19 -10 -54 -27 -54 -16 0 -37 20 -37 36 0 19 29 44 45 38
7 -3 16 -12 19 -20z"/>
<path d="M2693 243 c-20 -8 -15 -41 7 -48 27 -9 25 -33 -2 -38 l-23 -4 23 -2
c33 -2 40 28 12 49 -24 18 -19 46 7 36 8 -3 11 -1 8 4 -7 11 -13 11 -32 3z"/>
<path d="M1322 195 c0 -27 3 -40 5 -27 6 30 53 32 53 2 0 -11 5 -20 10 -20 6
0 10 20 10 45 0 25 -4 45 -10 45 -5 0 -10 -9 -10 -20 0 -28 -38 -26 -50 3 -7
17 -9 11 -8 -28z"/>
<path d="M1615 204 c-17 -41 -20 -68 -4 -41 5 9 17 17 26 17 9 0 22 -8 29 -17
10 -12 8 -3 -3 30 -10 26 -21 47 -25 47 -4 0 -15 -16 -23 -36z m35 -5 c0 -5
-7 -9 -15 -9 -9 0 -12 6 -9 15 6 15 24 11 24 -6z"/>
<path d="M1773 195 c0 -27 2 -38 4 -22 2 15 2 37 0 50 -2 12 -4 0 -4 -28z"/>
<path d="M2147 193 c-11 -33 -13 -42 -3 -30 7 9 20 17 29 17 9 0 21 -8 26 -17
16 -27 13 -8 -5 37 -9 22 -19 40 -23 40 -4 0 -14 -21 -24 -47z m32 -2 c-15 -5
-22 6 -14 19 6 9 10 9 16 -1 5 -8 4 -15 -2 -18z"/>
<path d="M2397 193 c-11 -33 -13 -42 -3 -30 7 9 20 17 29 17 9 0 21 -8 26 -17
16 -27 13 -8 -5 37 -9 22 -19 40 -23 40 -4 0 -14 -21 -24 -47z m32 -2 c-15 -5
-22 6 -14 19 6 9 10 9 16 -1 5 -8 4 -15 -2 -18z"/>
</g>
</svg>
