<?xml version="1.0" encoding="UTF-8" standalone="no"?>
<!-- Created with Inkscape (http://www.inkscape.org/) -->

<svg
   xmlns:dc="http://purl.org/dc/elements/1.1/"
   xmlns:cc="http://creativecommons.org/ns#"
   xmlns:rdf="http://www.w3.org/1999/02/22-rdf-syntax-ns#"
   xmlns:svg="http://www.w3.org/2000/svg"
   xmlns="http://www.w3.org/2000/svg"
   xmlns:sodipodi="http://sodipodi.sourceforge.net/DTD/sodipodi-0.dtd"
   xmlns:inkscape="http://www.inkscape.org/namespaces/inkscape"
   width="290"
   height="80"
   viewBox="0 0 76.729165 21.166667"
   version="1.1"
   id="svg8"
   inkscape:version="0.92.5 (2060ec1f9f, 2020-04-08)"
   sodipodi:docname="logo.svg">
  <defs
     id="defs2" />
  <sodipodi:namedview
     id="base"
     pagecolor="#ffffff"
     bordercolor="#666666"
     borderopacity="1.0"
     inkscape:pageopacity="0.0"
     inkscape:pageshadow="2"
     inkscape:zoom="2.8"
     inkscape:cx="167.19865"
     inkscape:cy="-3.0001792"
     inkscape:document-units="mm"
     inkscape:current-layer="layer1"
     showgrid="true"
     units="px"
     inkscape:window-width="1366"
     inkscape:window-height="704"
     inkscape:window-x="0"
     inkscape:window-y="27"
     inkscape:window-maximized="1" />
  <metadata
     id="metadata5">
    <rdf:RDF>
      <cc:Work
         rdf:about="">
        <dc:format>image/svg+xml</dc:format>
        <dc:type
           rdf:resource="http://purl.org/dc/dcmitype/StillImage" />
        <dc:title></dc:title>
      </cc:Work>
    </rdf:RDF>
  </metadata>
  <g
     inkscape:label="Camada 1"
     inkscape:groupmode="layer"
     id="layer1"
     transform="translate(0,-275.83332)">
    <path
       style="fill:none;stroke:#008400;stroke-width:0.84299999;stroke-miterlimit:4;stroke-dasharray:none;stroke-opacity:1"
       d="m 20.845386,286.32217 a 9.921875,9.921875 0 0 1 -9.921875,9.92188 9.921875,9.921875 0 0 1 -9.9218754,-9.92188 9.921875,9.921875 0 0 1 9.9218754,-9.92187 9.921875,9.921875 0 0 1 9.921875,9.92187 z"
       id="path21" />
    <path
       style="fill:none;stroke:#000000;stroke-width:0.39141354;stroke-miterlimit:4;stroke-dasharray:none;stroke-opacity:1"
       d="m 19.737249,286.27493 a 8.7664928,8.7664928 0 0 1 -8.766492,8.7665 8.7664928,8.7664928 0 0 1 -8.7664933,-8.7665 8.7664928,8.7664928 0 0 1 8.7664933,-8.76649 8.7664928,8.7664928 0 0 1 8.766492,8.76649 z"
       id="path21-3" />
    <path
       style="fill:#000000;fill-opacity:1;stroke:#000000;stroke-width:0.23074798;stroke-linecap:butt;stroke-linejoin:round;stroke-miterlimit:4;stroke-dasharray:none;stroke-opacity:1;paint-order:normal"
       d="m -279.51486,10.90027 h 1.8773 c 0.009,0 0.0165,0.0074 0.0165,0.01654 v 0.17643 c 0,0.0092 -0.007,0.01654 -0.0165,0.01654 h -1.8773 c -0.009,0 -0.0165,-0.0074 -0.0165,-0.01654 v -0.17643 c 0,-0.0092 0.007,-0.01654 0.0165,-0.01654 z"
       transform="rotate(-90)"
       id="rect4595" />
    <path
       style="fill:#000000;fill-opacity:1;stroke:#000000;stroke-width:0.23074798;stroke-linecap:butt;stroke-linejoin:round;stroke-miterlimit:4;stroke-dasharray:none;stroke-opacity:1;paint-order:normal"
       d="m -294.78873,10.90027 h 1.8773 c 0.009,0 0.0165,0.0074 0.0165,0.01654 v 0.17643 c 0,0.0092 -0.007,0.01654 -0.0165,0.01654 h -1.8773 c -0.009,0 -0.0165,-0.0074 -0.0165,-0.01654 v -0.17643 c 0,-0.0092 0.007,-0.01654 0.0165,-0.01654 z"
       transform="rotate(-90)"
       id="rect4595-7" />
    <path
       style="fill:#000000;fill-opacity:1;stroke:#000000;stroke-width:0.23074798;stroke-linecap:butt;stroke-linejoin:round;stroke-miterlimit:4;stroke-dasharray:none;stroke-opacity:1;paint-order:normal"
       d="m -206.88635,205.81142 h 1.8773 c 0.009,0 0.0165,0.007 0.0165,0.0165 v 0.17643 c 0,0.009 -0.007,0.0165 -0.0165,0.0165 h -1.8773 c -0.009,0 -0.0165,-0.007 -0.0165,-0.0165 v -0.17643 c 0,-0.009 0.007,-0.0165 0.0165,-0.0165 z"
       transform="rotate(-46.01006)"
       id="rect4595-7-5" />
    <path
       style="fill:#000000;fill-opacity:1;stroke:#000000;stroke-width:0.23074798;stroke-linecap:butt;stroke-linejoin:round;stroke-miterlimit:4;stroke-dasharray:none;stroke-opacity:1;paint-order:normal"
       d="M 2.4022185,285.93182 H 4.27952 c 0.00916,0 0.016539,0.007 0.016539,0.0165 v 0.17643 c 0,0.009 -0.00738,0.0165 -0.016539,0.0165 H 2.4022185 c -0.00916,0 -0.016539,-0.007 -0.016539,-0.0165 v -0.17643 c 0,-0.009 0.00738,-0.0165 0.016539,-0.0165 z"
       id="rect4595-7-3" />
    <path
       style="fill:#000000;fill-opacity:1;stroke:#000000;stroke-width:0.23074798;stroke-linecap:butt;stroke-linejoin:round;stroke-miterlimit:4;stroke-dasharray:none;stroke-opacity:1;paint-order:normal"
       d="m 17.642666,285.93182 h 1.877301 c 0.0092,0 0.01654,0.007 0.01654,0.0165 v 0.17643 c 0,0.009 -0.0074,0.0165 -0.01654,0.0165 h -1.877301 c -0.0092,0 -0.01654,-0.007 -0.01654,-0.0165 v -0.17643 c 0,-0.009 0.0074,-0.0165 0.01654,-0.0165 z"
       id="rect4595-7-3-5" />
    <path
       style="fill:#000000;fill-opacity:1;stroke:#000000;stroke-width:0.23074798;stroke-linecap:butt;stroke-linejoin:round;stroke-miterlimit:4;stroke-dasharray:none;stroke-opacity:1;paint-order:normal"
       d="m -191.55751,207.25298 h 1.8773 c 0.009,0 0.0165,0.007 0.0165,0.0165 v 0.17643 c 0,0.009 -0.007,0.0165 -0.0165,0.0165 h -1.8773 c -0.009,0 -0.0165,-0.007 -0.0165,-0.0165 v -0.17643 c 0,-0.009 0.007,-0.0165 0.0165,-0.0165 z"
       transform="rotate(-46.010059)"
       id="rect4595-7-5-6" />
    <path
       style="fill:#000000;fill-opacity:1;stroke:#000000;stroke-width:0.23074798;stroke-linecap:butt;stroke-linejoin:round;stroke-miterlimit:4;stroke-dasharray:none;stroke-opacity:1;paint-order:normal"
       d="m -229.08045,-182.38928 h 1.87731 c 0.009,0 0.0165,0.007 0.0165,0.0165 v 0.17643 c 0,0.009 -0.007,0.0165 -0.0165,0.0165 h -1.87731 c -0.009,0 -0.0165,-0.007 -0.0165,-0.0165 v -0.17643 c 0,-0.009 0.007,-0.0165 0.0165,-0.0165 z"
       transform="rotate(-131.8646)"
       id="rect4595-7-5-6-2" />
    <path
       style="fill:#000000;fill-opacity:1;stroke:#000000;stroke-width:0.23074798;stroke-linecap:butt;stroke-linejoin:round;stroke-miterlimit:4;stroke-dasharray:none;stroke-opacity:1;paint-order:normal"
       d="m -213.65378,-183.23433 h 1.8773 c 0.009,0 0.0165,0.007 0.0165,0.0165 v 0.17643 c 0,0.009 -0.007,0.0165 -0.0165,0.0165 h -1.8773 c -0.009,0 -0.0165,-0.007 -0.0165,-0.0165 v -0.17643 c 0,-0.009 0.007,-0.0165 0.0165,-0.0165 z"
       transform="rotate(-131.8646)"
       id="rect4595-7-5-6-2-9" />
    <path
       style="fill:#000000;fill-opacity:1;stroke:none;stroke-width:0.30116609;stroke-linecap:butt;stroke-linejoin:round;stroke-miterlimit:4;stroke-dasharray:none;stroke-opacity:1;paint-order:normal"
       d="m 218.25862,179.30032 h 8.23717 c 0.0135,0 0.0244,0.0109 0.0244,0.0244 v 3.89688 c 0,0.0135 -0.0109,0.0244 -0.0244,0.0244 h -8.23717 c -0.0135,0 -0.0244,-0.0109 -0.0244,-0.0244 v -3.89688 c 0,-0.0135 0.0109,-0.0244 0.0244,-0.0244 z"
       transform="rotate(48.615371)"
       id="rect4693" />
    <path
       style="fill:#000000;fill-opacity:1;stroke:none;stroke-width:0.29017362;stroke-linecap:butt;stroke-linejoin:round;stroke-miterlimit:4;stroke-dasharray:none;stroke-opacity:1;paint-order:normal"
       d="m -184.41959,221.55286 h 16.96089 c 0.0143,0 0.0258,0.0115 0.0258,0.0258 v 3.94009 c 0,0.0143 -0.0115,0.0258 -0.0258,0.0258 h -16.96089 c -0.0143,0 -0.0258,-0.0115 -0.0258,-0.0258 v -3.94009 c 0,-0.0143 0.0115,-0.0258 0.0258,-0.0258 z"
       id="rect4710"
       transform="rotate(-41.68866)" />
    <g
       aria-label="AGENDEI"
       style="font-style:normal;font-weight:normal;font-size:10.58333302px;line-height:1.25;font-family:sans-serif;letter-spacing:0px;word-spacing:0px;fill:#000000;fill-opacity:1;stroke:none;stroke-width:0.26458332"
       id="text4716">
      <path
         d="m 25.816562,284.89352 h 2.239312 l -1.116211,-3.09369 z m 2.707845,-3.76204 q 0,0 2.197971,6.09093 0.179145,0.49609 -0.130913,0.92328 -0.310059,0.43409 -0.826823,0.43409 h -0.151585 q -0.330729,0 -0.613227,-0.20671 -0.282497,-0.19981 -0.337619,-0.50298 l -0.35829,-1.70877 h -2.611382 l -0.330729,1.6881 q -0.06201,0.33073 -0.3514,0.53054 -0.296278,0.19982 -0.689019,0.19982 h -0.151584 q -0.516765,0 -0.819933,-0.43409 -0.303168,-0.42719 -0.137804,-0.92328 l 2.087728,-6.06337 q 0.179145,-0.52365 0.620117,-0.83371 0.440972,-0.31006 0.895725,-0.31006 h 0.192925 q 0.447863,0 0.888835,0.31006 0.447862,0.31006 0.627007,0.80615 z"
         style="font-style:normal;font-variant:normal;font-weight:normal;font-stretch:normal;font-size:14.11111069px;font-family:Dyuthi;-inkscape-font-specification:Dyuthi;stroke-width:0.26458332"
         id="path4801" />
      <path
         d="m 37.185378,283.68085 q 0,0 1.929253,0 0.3514,-0.0138 0.599447,0.24116 0.248046,0.24804 0.241156,0.59944 v 2.58383 q -0.01378,0.47542 -0.316949,0.85438 -0.303168,0.36518 -0.654568,0.43408 -0.351399,0.0689 -0.909505,0.15848 -0.558105,0.0965 -1.240234,0.0965 -2.301324,0 -3.541558,-1.192 -1.247125,-1.19201 -1.260905,-3.0937 0.01378,-2.12218 1.43316,-3.33485 1.419379,-1.20579 3.582899,-1.20579 0.502984,0 2.011935,0.12403 0.303169,0.0276 0.482314,0.2756 0.323839,0.50299 0.110243,1.10933 l -0.01378,0.0138 q -0.248046,0.61322 -0.840603,0.56499 l -1.922363,-0.19292 q -1.557183,-0.15159 -2.1773,0.51676 -0.895725,0.94396 -0.764811,2.26687 0.103352,1.10932 0.957736,1.87414 0.861274,0.76481 2.060167,0.76481 h 0.34451 q 0.234266,0 0.447862,-0.2136 0.213596,-0.2136 0.213596,-0.44097 v -1.00597 q 0,-0.22738 -0.151584,-0.3514 -0.179145,-0.19981 -0.330729,-0.12402 l -0.399631,0.19981 q -0.475424,0.22738 -0.627008,-0.3514 v -0.0138 q -0.151584,-0.50298 0.124024,-0.85438 0.220486,-0.30317 0.613227,-0.30317 z"
         style="font-style:normal;font-variant:normal;font-weight:normal;font-stretch:normal;font-size:14.11111069px;font-family:Dyuthi;-inkscape-font-specification:Dyuthi;stroke-width:0.26458332"
         id="path4803" />
      <path
         d="m 43.055819,287.07082 2.852539,-0.0551 q 0.303169,-0.007 0.544325,0.2136 0.241157,0.22049 0.241157,0.56499 v 0.0276 q 0,0.32383 -0.227376,0.5581 -0.227377,0.22738 -0.558106,0.22049 h -3.693142 q -0.502984,0 -0.868164,-0.36518 -0.36518,-0.36518 -0.36518,-0.86817 v -6.22873 q 0,-0.49609 0.3514,-0.86816 0.351399,-0.36518 0.881944,-0.36518 h 3.507107 q 0.392741,0 0.613227,0.2756 0.337619,0.41342 0.144694,0.80616 -0.192925,0.39274 -0.268717,0.45475 -0.234267,0.18603 -0.502984,0.17225 l -2.652724,-0.12402 v 1.95681 l 2.50114,-0.062 q 0.310058,-0.007 0.544325,0.2136 0.234266,0.22048 0.234266,0.55121 v 0.0276 q 0,0.33073 -0.234266,0.55811 -0.234267,0.22738 -0.544325,0.22049 l -2.50114,-0.062 z"
         style="font-style:normal;font-variant:normal;font-weight:normal;font-stretch:normal;font-size:14.11111069px;font-family:Dyuthi;-inkscape-font-specification:Dyuthi;stroke-width:0.26458332"
         id="path4805" />
      <path
         d="m 49.753085,282.84025 0.124023,4.76112 q 0.01378,0.39274 -0.289388,0.71658 -0.289388,0.30317 -0.71658,0.30317 h -0.02756 q -0.530544,0 -0.826823,-0.30317 -0.303168,-0.28939 -0.303168,-0.71658 v -6.62836 q 0,-0.41342 0.303168,-0.71658 0.275608,-0.28939 0.7028,-0.28939 h 0.606337 q 0.544325,0 0.826823,0.42719 l 3.62424,5.36746 -0.130914,-4.78868 q -0.01378,-0.40653 0.296278,-0.7028 0.303169,-0.30317 0.70969,-0.30317 h 0.02756 q 0.544325,0 0.840603,0.28939 0.289388,0.28938 0.289388,0.71658 v 6.0358 q 0,0.39274 -0.461643,1.12999 -0.39274,0.48232 -1.129991,0.48232 h -0.04134 q -0.881944,0 -1.357368,-0.77859 z"
         style="font-style:normal;font-variant:normal;font-weight:normal;font-stretch:normal;font-size:14.11111069px;font-family:Dyuthi;-inkscape-font-specification:Dyuthi;stroke-width:0.26458332"
         id="path4807" />
      <path
         d="m 59.385574,287.64271 q 0,0 0.0069,0 1.322916,0 2.253092,-0.85438 0.847494,-0.7717 0.847494,-2.97657 0,-1.28157 -0.847494,-2.06016 -0.930176,-0.85439 -2.253092,-0.85439 0,0 -0.0069,0 -0.275608,0 -0.475424,0.19293 -0.192925,0.19292 -0.192925,0.4892 v 5.38124 q 0,0.2825 0.192925,0.48231 0.199816,0.19982 0.475424,0.19982 z m -1.929254,-7.63433 q 1.481391,-0.10335 1.949924,-0.10335 2.315104,0 3.837836,1.18511 1.522733,1.18511 1.522733,3.26595 0,1.87413 -1.281576,3.0179 -1.384928,1.20579 -3.851617,1.20579 -0.454752,0 -2.163519,-0.0827 -0.275608,-0.0138 -0.454753,-0.19981 -0.172255,-0.19293 -0.172255,-0.46853 v -7.1658 q 0,-0.26183 0.179145,-0.45476 0.172255,-0.17225 0.434082,-0.19981 z"
         style="font-style:normal;font-variant:normal;font-weight:normal;font-stretch:normal;font-size:14.11111069px;font-family:Dyuthi;-inkscape-font-specification:Dyuthi;stroke-width:0.26458332"
         id="path4809" />
      <path
         d="m 67.860507,287.07082 2.852539,-0.0551 q 0.303168,-0.007 0.544325,0.2136 0.241157,0.22049 0.241157,0.56499 v 0.0276 q 0,0.32383 -0.227377,0.5581 -0.227376,0.22738 -0.558105,0.22049 h -3.693142 q -0.502984,0 -0.868164,-0.36518 -0.365181,-0.36518 -0.365181,-0.86817 v -6.22873 q 0,-0.49609 0.3514,-0.86816 0.3514,-0.36518 0.881945,-0.36518 h 3.507107 q 0.392741,0 0.613227,0.2756 0.337619,0.41342 0.144694,0.80616 -0.192926,0.39274 -0.268718,0.45475 -0.234266,0.18603 -0.502984,0.17225 l -2.652723,-0.12402 v 1.95681 l 2.501139,-0.062 q 0.310059,-0.007 0.544325,0.2136 0.234267,0.22048 0.234267,0.55121 v 0.0276 q 0,0.33073 -0.234267,0.55811 -0.234266,0.22738 -0.544325,0.22049 l -2.501139,-0.062 z"
         style="font-style:normal;font-variant:normal;font-weight:normal;font-stretch:normal;font-size:14.11111069px;font-family:Dyuthi;-inkscape-font-specification:Dyuthi;stroke-width:0.26458332"
         id="path4811" />
      <path
         d="m 74.592223,287.60826 q 0,0.4203 -0.296278,0.72347 -0.296278,0.30317 -0.72347,0.30317 h -0.02067 q -0.427192,0 -0.73036,-0.29628 -0.303168,-0.30317 -0.303168,-0.73036 v -6.7455 q 0,-0.42719 0.303168,-0.73036 0.303168,-0.30317 0.73036,-0.30317 h 0.02067 q 0.413411,0 0.71658,0.29628 0.303168,0.29628 0.303168,0.73725 z"
         style="font-style:normal;font-variant:normal;font-weight:normal;font-stretch:normal;font-size:14.11111069px;font-family:Dyuthi;-inkscape-font-specification:Dyuthi;stroke-width:0.26458332"
         id="path4813" />
    </g>
    <g
       aria-label="SEUS HORÃRIOS MARCADOS"
       style="font-style:normal;font-weight:normal;font-size:5.29166651px;line-height:1.25;font-family:sans-serif;letter-spacing:0px;word-spacing:0px;fill:#000000;fill-opacity:1;stroke:none;stroke-width:0.26458332"
       id="text4720">
      <path
         d="m 25.700412,290.97855 v 0.33934 q -0.198093,-0.0947 -0.373793,-0.14124 -0.175699,-0.0465 -0.339341,-0.0465 -0.284221,0 -0.43925,0.11024 -0.153307,0.11024 -0.153307,0.3135 0,0.17054 0.10163,0.25839 0.103353,0.0861 0.389296,0.13952 l 0.210151,0.0431 q 0.389296,0.0741 0.573608,0.26182 0.186036,0.18604 0.186036,0.49954 0,0.3738 -0.251492,0.56672 -0.24977,0.19293 -0.733806,0.19293 -0.18259,0 -0.389295,-0.0414 -0.204984,-0.0413 -0.42547,-0.1223 v -0.35829 q 0.211874,0.11886 0.415134,0.17915 0.203261,0.0603 0.399631,0.0603 0.298001,0 0.459921,-0.11714 0.161919,-0.11713 0.161919,-0.33417 0,-0.18948 -0.117133,-0.29628 -0.115411,-0.1068 -0.380683,-0.16019 l -0.211874,-0.0413 q -0.389295,-0.0775 -0.563273,-0.24288 -0.173977,-0.16536 -0.173977,-0.45992 0,-0.34106 0.239434,-0.53743 0.241157,-0.19637 0.663181,-0.19637 0.180867,0 0.368625,0.0327 0.187758,0.0327 0.384128,0.0982 z"
         style="font-size:3.52777767px;stroke-width:0.26458332"
         id="path4760" />
      <path
         d="m 26.398044,290.89415 h 1.626085 v 0.29283 h -1.27813 v 0.76137 h 1.224731 v 0.29283 h -1.224731 v 0.9319 h 1.309136 v 0.29283 h -1.657091 z"
         style="font-size:3.52777767px;stroke-width:0.26458332"
         id="path4762" />
      <path
         d="m 28.587402,290.89415 h 0.349677 v 1.56235 q 0,0.41341 0.149862,0.596 0.149861,0.18087 0.485758,0.18087 0.334174,0 0.484036,-0.18087 0.149862,-0.18259 0.149862,-0.596 v -1.56235 h 0.349677 v 1.60541 q 0,0.50299 -0.249769,0.75965 -0.248047,0.25666 -0.733806,0.25666 -0.487481,0 -0.73725,-0.25666 -0.248047,-0.25666 -0.248047,-0.75965 z"
         style="font-size:3.52777767px;stroke-width:0.26458332"
         id="path4764" />
      <path
         d="m 32.7508,290.97855 v 0.33934 q -0.198093,-0.0947 -0.373793,-0.14124 -0.1757,-0.0465 -0.339342,-0.0465 -0.28422,0 -0.43925,0.11024 -0.153306,0.11024 -0.153306,0.3135 0,0.17054 0.10163,0.25839 0.103353,0.0861 0.389296,0.13952 l 0.21015,0.0431 q 0.389296,0.0741 0.573609,0.26182 0.186035,0.18604 0.186035,0.49954 0,0.3738 -0.251492,0.56672 -0.249769,0.19293 -0.733805,0.19293 -0.18259,0 -0.389296,-0.0414 -0.204983,-0.0413 -0.425469,-0.1223 v -0.35829 q 0.211873,0.11886 0.415134,0.17915 0.20326,0.0603 0.399631,0.0603 0.298,0 0.45992,-0.11714 0.161919,-0.11713 0.161919,-0.33417 0,-0.18948 -0.117133,-0.29628 -0.115411,-0.1068 -0.380683,-0.16019 l -0.211873,-0.0413 q -0.389296,-0.0775 -0.563273,-0.24288 -0.173978,-0.16536 -0.173978,-0.45992 0,-0.34106 0.239434,-0.53743 0.241157,-0.19637 0.663181,-0.19637 0.180868,0 0.368626,0.0327 0.187757,0.0327 0.384128,0.0982 z"
         style="font-size:3.52777767px;stroke-width:0.26458332"
         id="path4766" />
      <path
         d="m 34.569811,290.89415 h 0.347954 v 1.0542 h 1.26435 v -1.0542 h 0.347955 v 2.57176 h -0.347955 v -1.22473 h -1.26435 v 1.22473 h -0.347954 z"
         style="font-size:3.52777767px;stroke-width:0.26458332"
         id="path4768" />
      <path
         d="m 38.266398,291.13014 q -0.378961,0 -0.602892,0.2825 -0.222209,0.28249 -0.222209,0.76997 0,0.48576 0.222209,0.76826 0.223931,0.2825 0.602892,0.2825 0.37896,0 0.599446,-0.2825 0.222209,-0.2825 0.222209,-0.76826 0,-0.48748 -0.222209,-0.76997 -0.220486,-0.2825 -0.599446,-0.2825 z m 0,-0.2825 q 0.54088,0 0.864719,0.36346 0.323839,0.36173 0.323839,0.97151 0,0.60806 -0.323839,0.97152 -0.323839,0.36174 -0.864719,0.36174 -0.542603,0 -0.868164,-0.36174 -0.323839,-0.36173 -0.323839,-0.97152 0,-0.60978 0.323839,-0.97151 0.325561,-0.36346 0.868164,-0.36346 z"
         style="font-size:3.52777767px;stroke-width:0.26458332"
         id="path4770" />
      <path
         d="m 41.218844,292.26013 q 0.111966,0.0379 0.217041,0.16192 0.106798,0.12402 0.213596,0.34106 l 0.353123,0.7028 h -0.373793 l -0.329007,-0.65973 q -0.127468,-0.25839 -0.248047,-0.34279 -0.118856,-0.0844 -0.325561,-0.0844 h -0.378961 v 1.08693 h -0.347954 v -2.57176 h 0.785481 q 0.440973,0 0.658014,0.18431 0.217041,0.18431 0.217041,0.55638 0,0.24288 -0.113689,0.40308 -0.111965,0.1602 -0.327284,0.22221 z m -0.871609,-1.08004 v 0.91295 h 0.437527 q 0.251492,0 0.378961,-0.11541 0.129191,-0.11713 0.129191,-0.34279 0,-0.22565 -0.129191,-0.33934 -0.127469,-0.11541 -0.378961,-0.11541 z"
         style="font-size:3.52777767px;stroke-width:0.26458332"
         id="path4772" />
      <path
         d="m 43.167045,291.23694 -0.471978,1.27985 h 0.945679 z m -0.19637,-0.34279 h 0.394463 l 0.98013,2.57176 h -0.361735 l -0.234267,-0.65973 h -1.159274 l -0.234267,0.65973 h -0.366902 z m 0.29111,-0.69936 h 0.318672 l -0.392741,0.45476 h -0.26355 z"
         style="font-size:3.52777767px;stroke-width:0.26458332"
         id="path4774" />
      <path
         d="m 45.940348,292.26013 q 0.111965,0.0379 0.217041,0.16192 0.106798,0.12402 0.213596,0.34106 l 0.353122,0.7028 h -0.373793 l -0.329007,-0.65973 q -0.127468,-0.25839 -0.248047,-0.34279 -0.118855,-0.0844 -0.325561,-0.0844 h -0.378961 v 1.08693 h -0.347954 v -2.57176 h 0.785482 q 0.440972,0 0.658013,0.18431 0.217041,0.18431 0.217041,0.55638 0,0.24288 -0.113688,0.40308 -0.111966,0.1602 -0.327284,0.22221 z m -0.87161,-1.08004 v 0.91295 h 0.437528 q 0.251492,0 0.37896,-0.11541 0.129191,-0.11713 0.129191,-0.34279 0,-0.22565 -0.129191,-0.33934 -0.127468,-0.11541 -0.37896,-0.11541 z"
         style="font-size:3.52777767px;stroke-width:0.26458332"
         id="path4776" />
      <path
         d="m 47.171969,290.89415 h 0.347955 v 2.57176 h -0.347955 z"
         style="font-size:3.52777767px;stroke-width:0.26458332"
         id="path4778" />
      <path
         d="m 49.256252,291.13014 q -0.378961,0 -0.602892,0.2825 -0.222209,0.28249 -0.222209,0.76997 0,0.48576 0.222209,0.76826 0.223931,0.2825 0.602892,0.2825 0.37896,0 0.599446,-0.2825 0.222209,-0.2825 0.222209,-0.76826 0,-0.48748 -0.222209,-0.76997 -0.220486,-0.2825 -0.599446,-0.2825 z m 0,-0.2825 q 0.54088,0 0.864719,0.36346 0.323839,0.36173 0.323839,0.97151 0,0.60806 -0.323839,0.97152 -0.323839,0.36174 -0.864719,0.36174 -0.542603,0 -0.868164,-0.36174 -0.323839,-0.36173 -0.323839,-0.97152 0,-0.60978 0.323839,-0.97151 0.325561,-0.36346 0.868164,-0.36346 z"
         style="font-size:3.52777767px;stroke-width:0.26458332"
         id="path4780" />
      <path
         d="m 52.530815,290.97855 v 0.33934 q -0.198093,-0.0947 -0.373793,-0.14124 -0.1757,-0.0465 -0.339342,-0.0465 -0.28422,0 -0.43925,0.11024 -0.153307,0.11024 -0.153307,0.3135 0,0.17054 0.101631,0.25839 0.103353,0.0861 0.389296,0.13952 l 0.21015,0.0431 q 0.389296,0.0741 0.573609,0.26182 0.186035,0.18604 0.186035,0.49954 0,0.3738 -0.251492,0.56672 -0.249769,0.19293 -0.733805,0.19293 -0.18259,0 -0.389296,-0.0414 -0.204983,-0.0413 -0.425469,-0.1223 v -0.35829 q 0.211873,0.11886 0.415134,0.17915 0.20326,0.0603 0.399631,0.0603 0.298,0 0.45992,-0.11714 0.161919,-0.11713 0.161919,-0.33417 0,-0.18948 -0.117133,-0.29628 -0.115411,-0.1068 -0.380683,-0.16019 l -0.211873,-0.0413 q -0.389296,-0.0775 -0.563273,-0.24288 -0.173978,-0.16536 -0.173978,-0.45992 0,-0.34106 0.239434,-0.53743 0.241157,-0.19637 0.663181,-0.19637 0.180868,0 0.368626,0.0327 0.187757,0.0327 0.384128,0.0982 z"
         style="font-size:3.52777767px;stroke-width:0.26458332"
         id="path4782" />
      <path
         d="m 54.349826,290.89415 h 0.518486 l 0.656291,1.75011 0.659736,-1.75011 h 0.518487 v 2.57176 h -0.339342 v -2.25826 l -0.663181,1.76389 h -0.349677 l -0.663181,-1.76389 v 2.25826 h -0.337619 z"
         style="font-size:3.52777767px;stroke-width:0.26458332"
         id="path4784" />
      <path
         d="m 58.25312,291.23694 -0.471978,1.27985 h 0.945679 z m -0.19637,-0.34279 h 0.394463 l 0.98013,2.57176 h -0.361735 l -0.234267,-0.65973 h -1.159275 l -0.234266,0.65973 h -0.366903 z"
         style="font-size:3.52777767px;stroke-width:0.26458332"
         id="path4786" />
      <path
         d="m 61.026421,292.26013 q 0.111965,0.0379 0.217041,0.16192 0.106798,0.12402 0.213595,0.34106 l 0.353123,0.7028 h -0.373793 l -0.329007,-0.65973 q -0.127468,-0.25839 -0.248047,-0.34279 -0.118855,-0.0844 -0.325561,-0.0844 h -0.378961 v 1.08693 h -0.347954 v -2.57176 h 0.785482 q 0.440972,0 0.658013,0.18431 0.217041,0.18431 0.217041,0.55638 0,0.24288 -0.113688,0.40308 -0.111966,0.1602 -0.327284,0.22221 z m -0.87161,-1.08004 v 0.91295 h 0.437528 q 0.251491,0 0.37896,-0.11541 0.129191,-0.11713 0.129191,-0.34279 0,-0.22565 -0.129191,-0.33934 -0.127469,-0.11541 -0.37896,-0.11541 z"
         style="font-size:3.52777767px;stroke-width:0.26458332"
         id="path4788" />
      <path
         d="m 64.008151,291.09224 v 0.3669 q -0.1757,-0.16364 -0.375515,-0.2446 -0.198093,-0.081 -0.422024,-0.081 -0.440973,0 -0.675239,0.27044 -0.234267,0.26872 -0.234267,0.77859 0,0.50816 0.234267,0.7786 0.234266,0.26871 0.675239,0.26871 0.223931,0 0.422024,-0.081 0.199815,-0.081 0.375515,-0.2446 v 0.36346 q -0.18259,0.12402 -0.387573,0.18603 -0.203261,0.062 -0.430637,0.062 -0.583944,0 -0.919841,-0.35657 -0.335896,-0.35829 -0.335896,-0.97669 0,-0.62011 0.335896,-0.97668 0.335897,-0.35829 0.919841,-0.35829 0.230821,0 0.434082,0.062 0.204983,0.0603 0.384128,0.18259 z"
         style="font-size:3.52777767px;stroke-width:0.26458332"
         id="path4790" />
      <path
         d="m 65.405136,291.23694 -0.471978,1.27985 h 0.945678 z m -0.196371,-0.34279 h 0.394464 l 0.980129,2.57176 h -0.361735 l -0.234266,-0.65973 h -1.159275 l -0.234266,0.65973 h -0.366903 z"
         style="font-size:3.52777767px;stroke-width:0.26458332"
         id="path4792" />
      <path
         d="m 67.306831,291.18009 v 1.99988 h 0.420302 q 0.532267,0 0.778591,-0.24116 0.248047,-0.24115 0.248047,-0.76136 0,-0.51677 -0.248047,-0.7562 -0.246324,-0.24116 -0.778591,-0.24116 z m -0.347955,-0.28594 h 0.714858 q 0.747585,0 1.097262,0.31178 0.349678,0.31006 0.349678,0.97152 0,0.6649 -0.3514,0.97668 -0.3514,0.31178 -1.09554,0.31178 h -0.714858 z"
         style="font-size:3.52777767px;stroke-width:0.26458332"
         id="path4794" />
      <path
         d="m 70.719198,291.13014 q -0.378961,0 -0.602892,0.2825 -0.222209,0.28249 -0.222209,0.76997 0,0.48576 0.222209,0.76826 0.223931,0.2825 0.602892,0.2825 0.37896,0 0.599446,-0.2825 0.222209,-0.2825 0.222209,-0.76826 0,-0.48748 -0.222209,-0.76997 -0.220486,-0.2825 -0.599446,-0.2825 z m 0,-0.2825 q 0.54088,0 0.864718,0.36346 0.323839,0.36173 0.323839,0.97151 0,0.60806 -0.323839,0.97152 -0.323838,0.36174 -0.864718,0.36174 -0.542603,0 -0.868164,-0.36174 -0.323839,-0.36173 -0.323839,-0.97152 0,-0.60978 0.323839,-0.97151 0.325561,-0.36346 0.868164,-0.36346 z"
         style="font-size:3.52777767px;stroke-width:0.26458332"
         id="path4796" />
      <path
         d="m 73.993759,290.97855 v 0.33934 q -0.198093,-0.0947 -0.373793,-0.14124 -0.1757,-0.0465 -0.339342,-0.0465 -0.28422,0 -0.43925,0.11024 -0.153306,0.11024 -0.153306,0.3135 0,0.17054 0.10163,0.25839 0.103353,0.0861 0.389296,0.13952 l 0.21015,0.0431 q 0.389296,0.0741 0.573609,0.26182 0.186035,0.18604 0.186035,0.49954 0,0.3738 -0.251492,0.56672 -0.249769,0.19293 -0.733805,0.19293 -0.18259,0 -0.389296,-0.0414 -0.204983,-0.0413 -0.425469,-0.1223 v -0.35829 q 0.211873,0.11886 0.415134,0.17915 0.20326,0.0603 0.399631,0.0603 0.298,0 0.45992,-0.11714 0.161919,-0.11713 0.161919,-0.33417 0,-0.18948 -0.117133,-0.29628 -0.115411,-0.1068 -0.380683,-0.16019 l -0.211873,-0.0413 q -0.389296,-0.0775 -0.563273,-0.24288 -0.173978,-0.16536 -0.173978,-0.45992 0,-0.34106 0.239434,-0.53743 0.241157,-0.19637 0.663181,-0.19637 0.180868,0 0.368626,0.0327 0.187757,0.0327 0.384128,0.0982 z"
         style="font-size:3.52777767px;stroke-width:0.26458332"
         id="path4798" />
    </g>
  </g>
</svg>
